<?xml version="1.0" standalone="no"?>
<!DOCTYPE svg PUBLIC "-//W3C//DTD SVG 20010904//EN"
 "http://www.w3.org/TR/2001/REC-SVG-20010904/DTD/svg10.dtd">
<svg version="1.0" xmlns="http://www.w3.org/2000/svg"
 width="2000.000000pt" height="2000.000000pt" viewBox="0 0 2000.000000 2000.000000"
 preserveAspectRatio="xMidYMid meet">

<g transform="translate(0.000000,2000.000000) scale(0.100000,-0.100000)"
fill="#000000" stroke="none">
<path d="M11795 17869 c-101 -12 -197 -41 -255 -77 l-45 -29 -33 20 c-47 28
-144 33 -218 12 -226 -65 -428 -290 -493 -550 -62 -248 -43 -452 61 -676 33
-71 38 -90 29 -107 -39 -73 45 -279 166 -410 l54 -57 -32 -79 c-61 -157 -69
-266 -23 -317 15 -16 29 -20 70 -18 31 2 59 -3 67 -10 11 -8 37 -10 91 -5 66
6 80 10 99 33 l22 27 59 -57 59 -57 1 -118 c1 -106 -2 -124 -23 -167 -27 -55
-82 -92 -182 -122 -57 -18 -62 -18 -71 -2 -8 15 -27 17 -141 16 -73 0 -166 -4
-207 -10 -41 -5 -212 -13 -380 -18 -227 -7 -356 -16 -505 -35 -481 -63 -733
-112 -980 -190 -225 -71 -387 -118 -391 -114 -2 2 1 22 7 43 18 63 7 169 -20
205 -12 17 -20 38 -17 46 3 8 53 86 111 174 149 224 161 255 196 518 11 84 31
187 45 228 13 42 22 85 19 95 -22 70 -115 64 -178 -11 -14 -16 -28 -30 -30
-30 -2 0 -7 80 -10 178 -4 154 -24 337 -44 421 -10 43 -41 99 -65 115 -30 21
-54 20 -78 -4 -23 -23 -30 -25 -30 -7 0 30 -51 118 -75 129 -53 24 -95 -32
-95 -126 0 -20 -5 -26 -23 -26 -13 0 -31 -6 -40 -12 -23 -18 -47 -91 -54 -165
-6 -60 -14 -76 -28 -53 -12 20 -54 10 -71 -16 -34 -52 -45 -127 -54 -364 -5
-159 -15 -280 -31 -375 -15 -98 -22 -186 -23 -295 -1 -139 1 -160 21 -202 l21
-47 -43 -25 c-77 -45 -139 -145 -151 -243 -4 -29 -21 -73 -45 -113 -21 -36
-53 -96 -71 -135 -30 -65 -33 -78 -33 -170 0 -89 3 -106 27 -155 37 -75 98
-134 179 -173 62 -29 68 -35 68 -63 1 -19 -7 -38 -20 -50 -12 -10 -86 -116
-164 -234 -185 -278 -238 -343 -481 -590 -111 -113 -207 -215 -213 -228 -19
-35 2 -55 48 -47 47 9 93 33 171 91 75 55 74 53 -47 -109 -42 -57 -73 -108
-73 -122 0 -34 31 -40 85 -16 37 16 45 17 45 5 0 -30 55 -14 135 40 265 180
649 556 788 772 l46 70 58 -9 c113 -18 194 30 254 150 19 37 34 69 35 71 3 7
473 -19 584 -33 121 -14 922 -127 928 -130 1 -1 -5 -46 -13 -101 -17 -114 -19
-278 -5 -379 17 -118 39 -191 130 -435 91 -243 138 -386 160 -478 12 -53 12
-54 -18 -85 -36 -37 -132 -218 -132 -248 0 -11 4 -29 10 -39 8 -15 0 -34 -44
-97 -164 -240 -279 -488 -336 -727 -11 -43 -21 -81 -24 -83 -6 -7 -243 16
-346 33 -47 8 -141 17 -210 20 -214 10 -398 -39 -685 -183 -335 -168 -624
-336 -925 -538 -678 -455 -957 -723 -1135 -1090 -65 -134 -90 -206 -110 -320
-17 -100 -20 -221 -5 -230 5 -3 10 -22 10 -40 0 -32 -8 -40 -92 -104 -59 -44
-97 -66 -103 -60 -16 16 -94 10 -138 -12 -52 -27 -103 -67 -238 -191 -105 -96
-139 -143 -139 -192 0 -21 -12 -32 -72 -67 -181 -106 -343 -169 -633 -249
-213 -58 -315 -77 -564 -105 -396 -46 -511 -94 -511 -215 0 -31 37 -81 69 -91
11 -4 11 -9 2 -26 -16 -31 -14 -85 5 -111 20 -29 66 -52 103 -52 28 0 30 -2
21 -25 -19 -50 18 -95 78 -95 26 0 28 -3 24 -29 -5 -37 23 -66 77 -81 36 -9
40 -14 43 -47 4 -50 41 -75 118 -81 136 -10 455 60 795 173 138 46 322 104
410 129 88 25 185 54 215 64 133 46 275 136 358 226 23 25 59 54 80 65 42 22
221 163 301 239 47 44 53 54 49 81 -4 27 0 34 29 51 19 11 38 20 42 20 5 0 11
-22 14 -48 7 -61 59 -272 93 -377 27 -84 244 -546 339 -724 99 -185 228 -369
348 -498 89 -95 344 -316 544 -471 94 -73 175 -138 181 -145 6 -8 6 -42 -1
-97 -7 -60 -6 -119 2 -200 6 -63 13 -136 14 -161 8 -142 197 -327 410 -400
102 -35 239 -53 328 -45 52 6 73 4 91 -8 37 -24 132 -37 313 -43 273 -9 505
22 613 82 52 29 46 33 111 -75 150 -250 358 -752 477 -1149 34 -113 36 -127
24 -155 -17 -38 -24 -207 -15 -335 7 -92 19 -121 55 -133 22 -7 -20 -78 -85
-144 -95 -94 -217 -163 -559 -315 -214 -95 -291 -140 -319 -188 -25 -43 -21
-64 19 -99 28 -25 45 -32 79 -32 25 0 48 -6 55 -14 6 -8 37 -21 67 -27 47 -11
79 -10 201 5 198 25 311 52 562 135 264 87 300 95 525 121 213 25 291 41 363
76 62 30 128 107 138 159 13 70 -38 243 -116 395 -14 27 -23 59 -21 80 3 47
-36 245 -58 295 -24 54 -64 99 -105 119 -33 15 -35 21 -56 114 -12 53 -35 149
-50 212 -34 136 -81 377 -150 775 -67 379 -132 679 -231 1065 -74 286 -83 327
-90 450 -8 132 -17 192 -60 397 l-21 103 27 92 c50 172 45 226 -27 329 l-39
56 22 54 c44 109 27 211 -59 338 -58 85 -58 84 -8 165 25 39 58 100 74 136 26
57 93 260 119 360 l9 34 129 22 c315 53 557 146 811 312 475 312 778 713 959
1273 95 294 146 543 164 794 21 303 -26 557 -154 823 -54 112 -178 326 -195
337 -5 3 1 22 13 43 19 32 22 52 22 142 0 114 -16 180 -61 246 l-25 36 35 111
c19 62 71 214 115 339 95 269 357 1069 407 1242 65 225 96 403 101 586 7 231
-8 318 -83 467 -35 70 -69 124 -90 143 -55 47 -184 108 -260 121 -44 8 -78 20
-94 34 -49 44 -92 59 -167 60 -40 0 -73 3 -73 7 0 12 -63 28 -111 28 -44 0
-50 3 -64 31 -28 54 -55 181 -62 289 l-6 105 29 -26 c60 -55 117 -63 204 -29
28 11 73 20 99 20 39 0 59 7 99 34 28 18 66 36 85 40 77 14 117 72 117 170 0
62 2 67 34 97 46 42 60 78 52 137 -4 26 -7 83 -6 127 1 75 -1 83 -29 122 -17
24 -46 52 -63 64 -29 19 -33 26 -33 68 0 89 -72 152 -182 159 -64 4 -65 5 -59
31 3 14 9 87 12 161 10 218 -24 359 -138 567 -78 142 -243 278 -403 331 -75
25 -186 33 -290 21z m-174 -784 c34 -74 21 -113 -47 -141 -45 -19 -161 -22
-192 -5 -29 15 -29 66 0 132 l21 51 13 -30 c13 -32 49 -62 75 -62 9 0 28 9 43
21 29 23 35 72 15 112 -9 18 -5 16 21 -8 18 -16 41 -48 51 -70z m-111 23 c0
-11 -7 -18 -20 -18 -15 0 -20 7 -20 28 0 16 3 32 7 36 10 9 33 -23 33 -46z
m426 -31 c147 -53 246 -154 301 -303 67 -187 81 -688 24 -875 -37 -117 -141
-266 -246 -349 -113 -89 -186 -111 -287 -86 -86 22 -214 86 -271 136 -107 95
-251 304 -321 467 -19 44 -56 147 -82 229 -45 140 -48 156 -49 259 0 137 23
213 98 317 44 61 202 207 212 196 2 -2 -2 -25 -8 -51 -9 -40 -8 -53 6 -83 25
-51 70 -67 178 -62 136 6 206 59 202 152 -1 23 -8 57 -17 77 l-15 36 117 -23
c64 -12 135 -29 158 -37z m-3476 -400 c5 -26 10 -78 10 -115 0 -131 22 -497
31 -514 8 -16 3 -18 -43 -19 -29 0 -93 -10 -141 -23 l-89 -23 7 136 c9 200 33
442 46 480 l12 34 20 -49 c18 -46 19 -65 13 -302 l-7 -253 23 3 c34 5 38 54
41 423 1 176 6 326 11 334 12 19 52 -48 66 -112z m4035 61 c8 -13 20 -41 26
-62 23 -83 -35 -261 -120 -367 l-39 -49 -4 40 c-2 23 1 41 8 44 6 2 14 20 17
40 3 20 20 64 37 97 17 34 29 68 26 76 -10 26 -49 10 -71 -30 -12 -20 -25 -34
-28 -30 -11 10 -8 61 3 68 6 3 10 16 10 28 1 52 74 167 106 167 7 0 20 -10 29
-22z m-3891 -81 c37 -80 66 -332 66 -585 0 -246 2 -241 -153 -336 -83 -51
-131 -103 -121 -130 10 -26 32 -19 72 22 20 22 69 58 109 80 87 51 122 92 158
185 34 88 68 140 101 156 51 23 56 8 24 -84 -11 -31 -29 -128 -40 -214 -29
-235 -55 -307 -165 -466 -140 -204 -234 -381 -235 -446 0 -19 -61 -54 -122
-69 -37 -10 -59 -9 -100 0 -78 18 -115 45 -145 104 -23 43 -27 64 -28 136 0
80 1 86 24 100 24 15 28 14 73 -16 83 -56 216 -67 206 -16 -2 12 -17 19 -55
23 -123 15 -191 81 -213 206 -13 79 -7 179 26 426 15 115 24 228 24 315 0 152
12 281 31 327 l12 30 8 -35 c4 -19 9 -111 10 -205 1 -93 5 -177 10 -186 6 -12
2 -19 -16 -27 -28 -13 -35 -52 -9 -52 9 0 47 11 84 24 119 43 215 59 318 51
88 -6 92 -5 92 14 0 26 -9 31 -70 38 -36 4 -48 9 -41 16 7 7 11 110 11 298 0
157 3 301 6 318 8 40 28 39 48 -2z m2404 -400 c33 -100 58 -184 56 -185 -1 -2
-23 22 -48 54 -53 68 -110 179 -128 247 -11 44 -11 50 5 62 41 30 53 11 115
-178z m1489 -74 c59 -52 133 -136 133 -152 0 -3 -15 -6 -33 -7 -21 0 -47 -11
-70 -30 -32 -25 -46 -29 -97 -29 l-60 0 0 80 c1 94 12 149 36 176 9 10 19 19
22 19 2 0 33 -26 69 -57z m144 -213 c10 0 19 -7 19 -15 0 -9 -9 -15 -23 -15
-28 0 -46 -14 -76 -57 -24 -36 -42 -41 -61 -18 -17 21 -44 19 -65 -5 -24 -26
-33 -25 -47 5 -16 36 4 57 48 49 46 -8 74 0 119 36 21 17 45 28 53 25 7 -3 22
-5 33 -5z m-1502 -37 c6 -16 31 -59 55 -98 25 -38 42 -73 40 -77 -11 -17 -72
-19 -102 -4 -17 9 -47 16 -66 16 l-35 0 18 53 c50 143 67 164 90 110z m-14
-235 c34 -19 41 -20 84 -9 33 8 55 9 74 2 31 -12 30 -11 17 -46 -9 -24 -14
-26 -45 -21 -21 4 -42 2 -56 -6 -17 -10 -23 -10 -26 0 -10 26 -41 33 -73 17
-39 -20 -66 -7 -75 36 -12 53 36 65 100 27z m1137 -273 c12 -38 22 -74 23 -78
0 -5 -47 -28 -105 -52 -274 -111 -473 -226 -924 -533 l-169 -115 7 74 c7 68
42 221 65 280 8 21 19 28 65 37 31 6 89 25 131 43 131 54 175 131 175 306 l0
93 38 -19 c131 -67 273 -78 372 -29 71 35 162 111 225 188 l50 61 12 -93 c7
-51 23 -124 35 -163z m178 -132 c0 -5 -19 -20 -43 -35 -93 -59 -197 -162 -197
-196 0 -32 32 -21 77 25 153 156 282 209 390 160 24 -10 21 -12 -45 -29 -134
-32 -302 -126 -302 -168 0 -31 31 -25 98 21 162 107 345 136 497 78 l60 -23
-82 -8 c-188 -16 -409 -104 -611 -244 -83 -58 -103 -68 -235 -115 -296 -106
-590 -182 -854 -219 -172 -24 -182 -25 -163 -6 26 25 357 249 663 450 158 104
422 233 605 296 57 19 142 27 142 13z m-1320 -231 c0 -5 -9 -36 -20 -69 -31
-95 -58 -221 -65 -309 l-7 -81 -49 -39 c-27 -21 -49 -42 -49 -45 0 -10 -140
-20 -370 -28 l-199 -6 41 75 c89 164 218 359 312 472 10 11 38 18 93 23 43 3
85 8 93 9 34 8 220 5 220 -2z m-3153 -41 c-7 -29 12 -129 33 -171 64 -125 244
-174 386 -105 62 30 142 113 151 155 3 17 10 33 16 37 20 12 1 -132 -24 -183
-33 -69 -107 -138 -171 -161 -77 -26 -214 -24 -291 6 -119 47 -162 110 -162
241 0 73 4 93 28 143 28 56 44 74 34 38z m1147 -403 c9 -42 16 -90 16 -106 l0
-30 -127 -6 c-304 -17 -613 -63 -711 -106 -27 -12 -54 -17 -72 -13 -63 12
-126 -30 -187 -124 -18 -29 -39 -53 -46 -53 -30 0 -142 78 -173 120 -78 106
-82 216 -15 356 22 46 44 84 48 84 4 0 16 -20 26 -45 48 -115 197 -183 383
-173 111 6 186 38 259 113 48 49 55 52 195 93 80 23 186 55 235 71 l90 29 32
-67 c18 -36 39 -101 47 -143z m2544 -83 c136 -41 252 -229 252 -409 0 -89 -12
-135 -57 -212 l-35 -60 -212 -33 c-563 -85 -779 -94 -1261 -55 -216 17 -263
23 -610 75 -439 65 -671 89 -962 96 -237 6 -265 5 -281 -10 -17 -15 -23 -16
-66 -3 -99 30 -172 102 -201 199 -24 82 -21 99 33 149 52 49 90 64 237 92 263
50 401 57 1355 66 487 5 946 14 1020 20 197 15 430 47 550 74 128 29 171 31
238 11z m-3481 -261 c-31 -28 -32 -45 -12 -132 20 -84 45 -130 101 -185 82
-81 183 -114 265 -87 21 7 42 11 45 8 9 -10 -33 -83 -66 -117 -39 -38 -64 -45
-145 -39 -81 7 -148 43 -220 119 -63 66 -103 144 -112 217 -5 45 -2 57 30 114
35 62 88 121 117 130 26 9 25 -2 -3 -28z m-159 -346 c33 -73 104 -155 171
-200 25 -17 48 -33 50 -35 10 -7 -113 -174 -197 -268 -156 -175 -427 -422
-575 -524 l-46 -31 104 155 c103 153 123 193 110 214 -10 18 -34 12 -47 -11
-48 -83 -195 -294 -226 -324 -37 -36 -72 -60 -72 -49 0 4 26 41 58 83 66 87
170 255 178 288 3 13 3 28 -1 33 -14 24 -45 8 -91 -46 -46 -54 -172 -161 -217
-184 -12 -7 43 55 123 137 251 258 327 352 475 579 95 147 164 245 170 245 2
0 16 -28 33 -62z m3947 -294 c-74 -513 -200 -1028 -309 -1256 -19 -40 -55
-105 -80 -144 -52 -80 -38 -74 -219 -90 l-78 -7 36 54 c44 65 169 319 219 445
36 92 108 359 145 539 26 125 83 577 76 596 -4 12 20 19 112 35 65 11 119 17
121 13 2 -4 -9 -87 -23 -185z m-275 18 c-6 -48 -22 -168 -35 -267 -33 -252
-97 -532 -161 -703 -55 -146 -159 -357 -226 -459 l-62 -93 -115 1 c-64 1 -150
4 -191 8 l-74 6 -8 40 c-5 22 -18 68 -29 103 -15 46 -25 62 -39 62 -31 0 -32
-16 -4 -105 15 -47 25 -87 23 -89 -2 -3 -28 1 -56 6 -35 7 -53 16 -53 25 0 30
-111 352 -123 356 -17 6 -37 -3 -37 -17 -1 -6 23 -82 52 -168 29 -86 50 -159
47 -162 -4 -4 -75 12 -87 20 -2 1 -14 51 -28 110 -30 135 -55 211 -160 489
-45 122 -92 257 -104 300 -28 107 -44 263 -36 354 6 68 9 78 55 140 70 94 83
105 123 97 18 -3 105 -8 193 -12 88 -3 162 -7 165 -9 3 -1 92 1 198 6 210 9
395 27 627 62 176 27 163 36 145 -101z m-1449 50 c-5 -10 -17 -25 -26 -32 -13
-11 -15 -10 -10 4 3 9 7 23 10 31 2 8 11 15 20 15 12 0 13 -4 6 -18z m2415
-1194 c-24 -68 -54 -162 -67 -210 l-24 -86 -75 -11 c-171 -25 -280 -31 -572
-31 -170 0 -308 3 -308 6 0 3 9 18 20 33 30 43 104 199 135 287 l28 79 306 -3
c313 -3 427 6 541 42 25 8 48 14 52 15 4 1 -12 -54 -36 -121z m-2116 -362
c173 -47 253 -57 482 -63 218 -5 246 -4 621 32 26 2 47 1 47 -4 0 -4 -44 -51
-99 -104 -54 -53 -121 -121 -148 -151 -47 -51 -54 -54 -122 -66 -148 -27 -596
21 -798 85 -92 29 -171 77 -179 110 -4 15 8 50 36 106 56 111 60 115 79 91 9
-10 45 -27 81 -36z m2072 -19 c23 -34 43 -129 42 -202 0 -139 -28 -160 -209
-159 -114 1 -124 3 -187 33 -94 44 -212 135 -288 220 -36 39 -68 78 -72 85 -6
11 38 15 265 19 149 3 290 10 312 16 49 12 126 5 137 -12z m-2239 -247 c85
-67 359 -127 663 -145 l111 -7 -19 -81 c-47 -204 -128 -386 -227 -509 l-60
-75 -73 -11 c-222 -34 -421 -36 -757 -6 l-63 6 6 41 c19 124 139 418 238 587
41 70 143 220 149 220 3 0 18 -9 32 -20z m1068 -140 c10 -6 19 -19 19 -29 0
-80 -171 -446 -247 -529 -45 -49 -53 -53 -143 -77 -52 -14 -105 -25 -118 -25
-22 0 -21 3 21 63 64 89 101 159 142 265 40 103 89 297 80 312 -4 6 22 10 67
11 40 1 87 5 103 9 44 11 54 11 76 0z m1189 -19 c0 -5 32 -60 71 -123 120
-190 206 -397 246 -594 28 -137 25 -474 -6 -649 -35 -199 -112 -496 -177 -676
-68 -190 -215 -452 -349 -624 -161 -205 -429 -432 -670 -568 -137 -77 -256
-127 -416 -173 -205 -60 -305 -49 -474 51 -152 89 -193 100 -591 150 -123 15
-396 89 -523 140 -74 30 -174 86 -316 176 -211 133 -576 343 -707 407 l-137
67 -13 55 c-19 80 -16 385 6 535 19 137 66 376 95 483 17 65 17 74 4 88 -11
11 -19 12 -28 4 -28 -24 -115 -445 -138 -670 -17 -159 -12 -380 9 -452 3 -10
3 -18 1 -18 -3 0 -97 37 -209 83 -281 115 -275 113 -385 141 -384 98 -700 85
-1060 -42 -62 -22 -113 -38 -113 -36 0 38 260 309 436 455 357 296 948 675
1452 930 265 135 474 199 646 199 57 0 265 -23 318 -35 60 -13 660 -55 793
-55 80 0 373 24 417 34 36 8 318 -56 463 -105 236 -81 387 -154 590 -286 191
-125 461 -342 595 -477 75 -77 102 -90 115 -59 5 14 -20 44 -102 123 -220 215
-555 463 -803 594 -161 85 -474 200 -605 222 -22 4 -44 9 -50 12 -11 7 86 31
98 24 4 -2 92 -5 195 -6 124 -2 217 -8 277 -20 116 -22 317 -90 475 -161 68
-30 130 -53 137 -51 7 3 13 14 13 25 0 14 -18 28 -67 51 -125 58 -339 139
-434 164 -83 21 -136 29 -369 53 l-55 5 115 38 c230 76 352 110 526 145 97 19
178 35 180 35 12 0 1 42 -12 47 -42 16 -593 -124 -800 -204 -8 -3 7 31 34 75
61 100 133 262 169 380 l27 89 515 -4 c293 -2 529 1 546 6 40 12 45 13 45 2z
m-5020 -2166 c112 -9 313 -52 420 -90 52 -18 187 -71 299 -117 l204 -84 22
-64 c34 -102 72 -170 95 -170 34 0 33 20 -5 101 -20 43 -35 83 -33 88 7 20
411 -206 808 -453 201 -124 292 -168 465 -220 213 -64 300 -83 470 -101 252
-27 336 -50 464 -124 36 -22 84 -48 105 -59 37 -18 38 -19 15 -25 -98 -23
-219 -32 -454 -32 -231 0 -273 3 -375 23 -153 31 -359 85 -445 117 -107 41
-535 260 -790 406 -295 168 -593 326 -720 382 -216 96 -419 145 -691 168 -431
36 -735 -44 -883 -231 -23 -29 -41 -47 -41 -41 0 18 45 140 80 216 60 132 86
153 292 224 147 50 286 81 413 91 98 7 134 6 285 -5z m-496 -386 c-55 -44
-139 -113 -189 -154 -176 -143 -388 -296 -398 -286 -6 6 -7 37 -2 76 13 124
103 260 221 335 88 55 281 107 408 109 l58 1 -98 -81z m1524 -347 c37 -21 137
-79 222 -129 85 -50 184 -105 220 -123 l65 -32 64 -152 c55 -132 117 -255 190
-377 l21 -36 -69 -37 c-91 -47 -269 -116 -446 -171 -203 -63 -710 -190 -840
-210 -60 -10 -116 -19 -122 -21 -18 -5 -16 -43 2 -50 28 -11 219 27 550 111
444 112 798 232 916 309 l35 24 94 -152 c51 -83 117 -188 147 -234 29 -45 53
-88 53 -95 0 -15 -87 -165 -149 -256 -44 -65 -271 -350 -410 -516 -42 -49
-168 -183 -280 -297 -173 -176 -202 -210 -191 -223 7 -8 17 -15 22 -15 14 0
105 89 287 280 214 226 206 217 412 475 181 226 248 319 313 438 l38 67 59
-72 c32 -40 73 -90 91 -110 l31 -38 -27 -169 c-51 -321 -172 -746 -377 -1331
-109 -311 -137 -385 -172 -462 l-30 -67 -34 72 c-58 120 -137 229 -236 323
-96 92 -325 258 -584 423 -277 176 -412 293 -681 591 -187 206 -280 346 -417
625 -150 307 -232 572 -270 881 l-7 52 59 35 c32 19 87 51 123 70 36 20 157
88 270 151 207 117 704 371 815 417 33 13 80 34 105 46 25 12 51 22 58 22 7 1
43 -16 80 -37z m-2416 -345 c-19 -20 -22 -35 -22 -98 0 -150 46 -265 151 -381
70 -78 159 -128 263 -148 l67 -13 -28 -29 c-47 -50 -255 -215 -301 -238 -36
-19 -54 -22 -103 -17 -85 7 -159 47 -250 134 -120 115 -181 255 -177 408 1 39
7 81 14 96 16 31 242 235 308 278 28 17 61 31 75 31 l24 0 -21 -23z m3422
-184 c103 -40 307 -94 468 -124 189 -35 590 -36 759 -2 l28 5 -10 -38 c-24
-94 -94 -294 -122 -349 -22 -46 -78 -144 -104 -184 -1 -2 -28 13 -60 32 -69
42 -127 68 -230 102 -78 27 -93 26 -93 -5 0 -13 14 -23 53 -35 96 -32 171 -66
257 -117 74 -45 91 -60 130 -121 25 -38 50 -83 57 -101 21 -56 14 -165 -14
-205 -1 -2 -28 19 -60 46 -101 87 -151 120 -249 168 -98 47 -124 51 -124 17 0
-15 28 -33 113 -75 207 -101 406 -308 407 -423 0 -17 -13 -78 -30 -135 -16
-57 -30 -119 -30 -138 0 -18 14 -94 30 -169 17 -74 33 -169 36 -211 l6 -76
-44 75 c-45 77 -146 231 -158 240 -3 3 -22 28 -40 55 -104 152 -182 243 -476
550 -196 205 -298 327 -389 464 -58 89 -93 145 -278 450 -91 150 -156 275
-206 393 -23 53 -41 99 -41 103 0 3 73 -32 163 -76 89 -45 202 -97 251 -116z
m-2525 -482 c49 -229 151 -499 283 -751 134 -257 249 -407 542 -707 191 -196
289 -274 576 -460 329 -211 524 -360 606 -461 58 -71 146 -222 170 -290 l19
-53 -33 -61 c-18 -33 -55 -95 -83 -139 l-51 -79 -71 -2 c-149 -4 -219 7 -339
52 -161 60 -338 236 -338 336 0 25 2 26 38 19 20 -4 62 -22 92 -40 52 -32 79
-54 263 -215 98 -85 163 -121 236 -127 50 -5 60 -3 86 19 58 51 31 145 -86
293 -121 153 -238 255 -499 435 -74 51 -187 134 -250 185 -63 50 -158 124
-210 165 -169 131 -401 343 -482 440 -44 52 -113 145 -153 205 -121 180 -406
754 -465 935 -42 128 -89 318 -96 388 l-6 58 103 66 104 65 11 -86 c6 -47 21
-133 33 -190z m-1344 164 c40 -183 179 -365 335 -440 41 -19 84 -35 95 -35 52
-1 48 -17 -16 -70 -95 -79 -212 -130 -484 -209 -132 -38 -292 -88 -355 -110
-243 -87 -512 -155 -716 -182 -172 -22 -234 30 -101 84 26 11 37 22 37 37 0
29 -20 33 -63 15 -45 -19 -127 -20 -152 -1 -18 13 -18 15 9 39 15 14 42 29 59
33 54 11 72 35 40 52 -12 6 -49 3 -106 -9 -113 -23 -142 -15 -96 27 11 10 42
26 67 34 45 15 65 41 45 60 -4 5 -48 1 -97 -7 -135 -23 -196 3 -165 70 12 27
54 47 99 47 32 0 53 21 48 47 -3 13 -11 17 -28 15 -14 -2 -53 -4 -87 -5 -52
-2 -66 2 -83 19 -16 15 -19 28 -14 47 17 70 144 106 514 147 395 44 835 172
1105 320 50 27 91 50 91 50 1 0 10 -34 19 -75z m4279 -1042 c64 -268 125 -663
147 -958 18 -240 -3 -751 -36 -906 -12 -52 -175 -92 -375 -92 -117 0 -354 27
-420 48 -13 4 -5 27 42 122 31 64 66 141 77 172 10 31 65 184 120 341 200 564
352 1100 387 1368 3 28 10 52 14 52 5 0 24 -66 44 -147z m-1503 -1435 c272
-190 470 -391 524 -532 23 -60 16 -76 -36 -76 -62 0 -140 47 -260 156 -177
163 -271 224 -348 227 l-38 1 -10 56 c-8 52 -6 280 3 280 2 0 77 -50 165 -112z
m998 -557 c85 -12 193 -21 240 -21 102 0 265 23 317 45 20 8 38 14 40 13 1 -2
-7 -32 -19 -68 -19 -55 -27 -68 -58 -82 -57 -29 -177 -55 -304 -69 -208 -21
-555 2 -548 37 1 6 25 49 53 96 l51 86 37 -9 c20 -4 106 -17 191 -28z m2001
-1573 c22 -42 45 -139 55 -239 l7 -66 -33 -26 c-55 -40 -108 -63 -204 -87
-111 -27 -301 -37 -404 -21 -81 13 -189 46 -208 64 -8 8 -15 67 -19 171 l-7
159 24 -16 c59 -38 289 -49 426 -21 103 21 274 89 303 119 26 28 26 27 60 -37z
m170 -595 c44 -142 17 -214 -98 -273 -53 -26 -142 -43 -332 -65 -212 -23 -276
-38 -560 -130 -252 -82 -388 -113 -580 -133 -72 -7 -153 -2 -166 10 -13 14 9
49 49 78 23 17 80 43 125 57 83 26 105 44 83 66 -26 26 -237 -56 -283 -111
-14 -17 -28 -36 -30 -41 -5 -14 -58 -26 -58 -13 0 6 20 25 45 43 47 34 53 47
33 67 -6 6 -9 14 -6 17 3 3 66 32 140 64 349 152 504 238 613 343 41 38 83 89
95 112 l20 42 73 -19 c98 -26 337 -28 452 -3 116 26 201 56 249 88 l41 28 37
-81 c21 -44 47 -110 58 -146z"/>
<path d="M11834 16682 c-28 -10 -63 -25 -77 -34 -45 -30 -44 -126 1 -129 33
-2 48 2 123 36 50 24 104 39 160 47 46 6 91 17 99 25 12 11 12 16 -7 34 -40
41 -208 52 -299 21z"/>
<path d="M11536 16648 c-19 -26 -12 -64 17 -95 25 -28 48 -29 70 -5 23 25 21
64 -4 96 -25 32 -62 34 -83 4z"/>
<path d="M11315 16576 c-131 -30 -227 -79 -255 -128 -13 -25 -13 -29 2 -44 15
-15 22 -14 98 11 69 23 156 36 292 45 4 0 16 10 28 22 21 23 28 82 10 93 -22
14 -118 14 -175 1z"/>
<path d="M11968 16489 c-89 -13 -147 -50 -134 -85 4 -10 13 -14 26 -11 16 4
20 0 20 -18 0 -58 68 -88 111 -49 17 16 20 28 17 66 -5 44 -4 47 21 50 20 2
26 9 26 28 0 29 -9 31 -87 19z"/>
<path d="M11516 16462 c-3 -5 5 -37 16 -73 18 -52 22 -91 24 -204 2 -173 0
-161 24 -185 41 -41 180 -17 180 31 0 27 -21 33 -56 14 -31 -16 -62 -19 -81
-7 -8 5 -11 45 -11 127 1 181 -28 305 -72 305 -10 0 -21 -4 -24 -8z"/>
<path d="M11260 16351 c-14 -4 -44 -18 -68 -30 -34 -17 -43 -27 -40 -44 3 -22
18 -26 51 -12 11 5 17 3 17 -8 0 -28 40 -67 70 -67 37 0 53 28 48 81 -3 32 0
39 17 41 12 2 20 11 20 23 0 17 -7 20 -45 22 -25 1 -56 -2 -70 -6z"/>
<path d="M11880 15895 c-7 -8 -37 -26 -67 -41 -48 -22 -66 -25 -134 -23 -51 2
-83 -1 -90 -8 -39 -39 99 -67 192 -39 59 17 135 62 144 84 5 15 -11 42 -25 42
-4 0 -13 -7 -20 -15z"/>
<path d="M12387 10717 c-7 -19 3 -32 43 -52 19 -10 50 -29 67 -43 36 -27 63
-24 63 7 0 13 -21 33 -61 60 -62 42 -103 52 -112 28z"/>
<path d="M9653 10223 c-22 -8 -15 -31 56 -171 160 -314 361 -584 628 -842 205
-199 349 -320 462 -390 110 -68 420 -222 439 -218 10 2 17 12 17 22 0 15 -46
44 -205 126 -113 58 -230 122 -260 142 -172 115 -577 504 -717 690 -138 182
-275 403 -343 553 -29 64 -57 95 -77 88z"/>
<path d="M10443 9553 c-22 -8 -14 -38 16 -67 32 -31 61 -30 61 2 0 28 -54 73
-77 65z"/>
<path d="M10607 9383 c-26 -25 15 -69 168 -180 220 -159 387 -252 585 -326
137 -51 200 -65 332 -73 104 -6 118 -5 124 10 11 30 -15 47 -60 41 -59 -9
-220 20 -338 61 -219 75 -533 258 -734 427 -57 48 -65 52 -77 40z"/>
<path d="M7660 7496 c-85 -10 -95 -13 -98 -32 -4 -31 14 -34 125 -23 105 11
124 19 107 47 -14 22 -19 22 -134 8z"/>
<path d="M10004 7805 c-9 -23 3 -33 62 -46 58 -13 82 -5 71 25 -11 29 -123 48
-133 21z"/>
<path d="M12587 17583 c-13 -12 -7 -31 22 -80 37 -60 67 -149 82 -244 13 -83
21 -98 43 -80 28 23 -6 196 -59 308 -44 89 -68 116 -88 96z"/>
<path d="M13417 14837 c-3 -8 1 -40 9 -73 8 -32 17 -113 20 -179 7 -139 -9
-256 -58 -433 -31 -114 -30 -142 5 -129 15 6 55 139 84 277 31 150 20 457 -19
533 -10 20 -34 23 -41 4z"/>
<path d="M13303 13888 c-6 -7 -23 -50 -39 -95 -23 -67 -26 -85 -16 -95 11 -11
17 -9 31 8 24 29 66 157 58 177 -8 20 -21 22 -34 5z"/>
<path d="M8098 13212 c-32 -43 -125 -147 -208 -232 -131 -134 -149 -156 -136
-168 20 -21 48 1 197 155 134 140 242 277 237 302 -7 36 -35 18 -90 -57z"/>
<path d="M8291 13193 c-10 -21 -42 -69 -71 -107 -28 -38 -49 -75 -46 -82 12
-31 43 -11 92 59 63 88 87 134 80 153 -10 25 -35 15 -55 -23z"/>
<path d="M8217 10860 c-239 -127 -347 -196 -347 -221 0 -30 27 -23 110 30 42
27 155 90 251 140 219 114 204 105 204 127 0 10 -7 20 -15 21 -8 2 -99 -42
-203 -97z"/>
<path d="M12721 9163 c-7 -14 -28 -49 -46 -78 -40 -59 -44 -85 -15 -85 29 0
129 157 115 180 -12 19 -42 10 -54 -17z"/>
<path d="M12524 8908 c-11 -13 -40 -50 -64 -83 -107 -148 -293 -312 -447 -397
-73 -40 -87 -60 -46 -66 51 -8 252 129 383 259 103 103 221 256 218 283 -4 28
-21 30 -44 4z"/>
<path d="M5620 6994 c-66 -19 -79 -29 -60 -49 13 -12 24 -12 85 4 56 14 70 21
70 37 0 25 -25 27 -95 8z"/>
<path d="M5295 6913 c-33 -14 -132 -45 -220 -70 -158 -45 -194 -61 -181 -82
11 -17 24 -14 182 29 235 65 338 110 319 140 -9 15 -33 11 -100 -17z"/>
<path d="M12210 2441 c-76 -5 -85 -8 -85 -26 0 -19 6 -20 190 -17 104 1 194 7
199 12 5 5 6 16 3 24 -5 13 -24 16 -114 14 -59 -1 -146 -4 -193 -7z"/>
<path d="M11665 2261 c-12 -30 16 -36 171 -35 156 0 180 6 168 37 -5 15 -25
17 -170 15 -130 -2 -165 -6 -169 -17z"/>
</g>
</svg>
